<svg width="29" height="29" viewBox="0 0 29 29" fill="none" xmlns="http://www.w3.org/2000/svg">
<g clip-path="url(#clip0_32_147)">
<path d="M7.07107 7.07102C3.17192 10.9702 3.17192 17.314 7.07107 21.2132C10.9702 25.1123 17.3141 25.1123 21.2132 21.2132C25.1123 17.314 25.1123 10.9702 21.2132 7.07102C17.3141 3.17188 10.9702 3.17188 7.07107 7.07102Z" fill="#D6D6D6"/>
<path d="M17.8249 11.6377L15.3206 14.1421L17.8249 16.6465C18.1502 16.9718 18.1502 17.4996 17.8249 17.8249C17.4996 18.1502 16.9718 18.1502 16.6465 17.8249L14.1421 15.3205L11.6377 17.8249C11.3124 18.1502 10.7846 18.1502 10.4593 17.8249C10.134 17.4996 10.134 16.9718 10.4593 16.6465L12.9637 14.1421L10.4593 11.6377C10.134 11.3124 10.134 10.7846 10.4593 10.4593C10.7846 10.134 11.3124 10.134 11.6377 10.4593L14.1421 12.9637L16.6465 10.4593C16.9718 10.134 17.4996 10.134 17.8249 10.4593C18.1502 10.7846 18.1502 11.3124 17.8249 11.6377Z" fill="#FAFAFA"/>
</g>
<defs>
<clipPath id="clip0_32_147">
<rect width="20" height="20" fill="white" transform="translate(0 14.1421) rotate(-45)"/>
</clipPath>
</defs>
</svg>
