<svg width="19" height="20" viewBox="0 0 19 20" fill="none" xmlns="http://www.w3.org/2000/svg">
<g clip-path="url(#clip0_55_612)">
<path d="M9.5 0C4.26149 0 0 4.48578 0 10C0 15.5142 4.26149 20 9.5 20C14.7385 20 19 15.5142 19 10C19 4.48578 14.7385 0 9.5 0Z" fill="#D6D6D6"/>
<path d="M13.6564 10.8333H10.2917V14.375C10.2917 14.8351 9.93716 15.2083 9.50011 15.2083C9.06306 15.2083 8.7085 14.8351 8.7085 14.375V10.8333H5.34386C4.90681 10.8333 4.55225 10.4601 4.55225 10C4.55225 9.53998 4.90681 9.16675 5.34386 9.16675H8.7085V5.62503C8.7085 5.16498 9.06306 4.79175 9.50011 4.79175C9.93716 4.79175 10.2917 5.16498 10.2917 5.62503V9.16675H13.6564C14.0934 9.16675 14.448 9.53998 14.448 10C14.448 10.4601 14.0934 10.8333 13.6564 10.8333Z" fill="#FAFAFA"/>
</g>
<defs>
<clipPath id="clip0_55_612">
<rect width="19" height="20" fill="white"/>
</clipPath>
</defs>
</svg>
