<svg width="129" height="129" viewBox="0 0 129 129" fill="none" xmlns="http://www.w3.org/2000/svg">
<g id="link (2) 1" clip-path="url(#clip0_87_653)">
<g id="XMLID_73_">
<g id="XMLID_5_">
<path id="XMLID_282_" d="M127.097 28.0492C127.097 20.546 124.182 13.4991 118.89 8.20687C113.598 2.91459 106.551 0 99.0478 0C99.0473 0 99.0481 0 99.0478 0C91.5452 0 84.4975 2.91485 79.2057 8.20687L70.4516 16.9607C69.4678 17.9446 69.4678 19.54 70.4516 20.5241C71.4358 21.5077 73.0311 21.508 74.0148 20.5241L82.7689 11.7702C87.1093 7.42934 92.8906 5.03906 99.0478 5.03906C105.205 5.03906 110.986 7.42959 115.327 11.7702C119.667 16.1109 122.058 21.892 122.058 28.0492C122.058 34.2064 119.667 39.9875 115.327 44.3279L91.2022 68.4524C91.208 68.2158 91.2111 67.9787 91.2111 67.7411C91.2111 64.0142 90.4912 60.4002 89.1188 57.0576L108.588 37.5886C111.132 35.0437 112.534 31.6559 112.534 28.0489C112.534 24.442 111.133 21.0537 108.588 18.509C103.327 13.2487 94.7681 13.2487 89.5079 18.509L56.3733 51.6433C51.113 56.9039 51.113 65.463 56.3733 70.7235C59.0034 73.3534 62.4584 74.6686 65.9132 74.6686C66.7537 74.6686 67.5942 74.5892 68.4229 74.4335L59.5544 83.302C55.8132 82.2332 52.405 80.2335 49.634 77.4625C45.2934 73.1218 42.9031 67.3408 42.9031 61.1835C42.9031 55.0263 45.2936 49.245 49.634 44.9046L57.9845 36.5541C58.9684 35.5702 58.9686 33.9749 57.9848 32.9907C57.0006 32.0074 55.4055 32.0071 54.4216 32.9907L46.0709 41.3412C43.0865 44.3259 40.8585 47.8686 39.4826 51.7361L10.1101 81.1088C4.81786 86.401 1.90302 93.4479 1.90302 100.951C1.90302 108.454 4.81761 115.501 10.1099 120.793C15.4024 126.085 22.4493 129 29.9522 129H29.9524C37.4551 129 44.5025 126.085 49.7945 120.793L83.0042 87.5837C85.9886 84.5991 88.2166 81.0563 89.5925 77.1889L118.89 47.8913C124.182 42.599 127.097 35.5521 127.097 28.0492ZM93.071 22.0724C96.3668 18.7771 101.729 18.7771 105.024 22.0724C106.618 23.6655 107.495 25.7882 107.495 28.0492C107.495 30.3102 106.618 32.4324 105.024 34.0258L86.6588 52.3916C85.6091 50.79 84.3889 49.284 83.0042 47.8993C80.275 45.1704 77.0374 43.0558 73.4884 41.6552L93.071 22.0724ZM59.9366 67.1604C58.367 65.591 57.5469 63.5527 57.4723 61.4919C60.7852 58.4725 65.9371 58.5632 69.1387 61.7648C70.7084 63.3345 71.5287 65.373 71.6031 67.4337C70.0462 68.8532 68.0415 69.631 65.9135 69.631C63.6522 69.6308 61.5297 68.7535 59.9366 67.1604ZM55.5867 87.27L35.929 106.928C34.3359 108.521 32.2132 109.398 29.9522 109.398C27.6912 109.398 25.5687 108.521 23.9756 106.928C22.3823 105.335 21.505 103.212 21.505 100.951C21.505 98.6898 22.3823 96.5673 23.9756 94.9742L42.4163 76.5335C43.466 78.1352 44.6862 79.6411 46.0709 81.0259C48.8001 83.7548 52.0379 85.8694 55.5867 87.27ZM79.4408 84.0206L46.2314 117.23C41.8907 121.571 36.1094 123.961 29.9522 123.961C23.795 123.961 18.0139 121.57 13.6733 117.23C9.33261 112.889 6.94233 107.108 6.94233 100.951C6.94233 94.7938 9.33286 89.0125 13.6735 84.6721L37.8731 60.4725C37.8673 60.7091 37.8643 60.9462 37.8643 61.1838C37.8643 64.9107 38.5841 68.5247 39.9565 71.8674L20.4127 91.4114C17.8678 93.9563 16.4662 97.3441 16.4662 100.951C16.4662 104.558 17.8678 107.946 20.4125 110.491C23.0429 113.121 26.4977 114.436 29.9524 114.436C33.4072 114.436 36.8623 113.121 39.4924 110.491L72.7021 77.2816C77.9624 72.0211 77.9624 63.462 72.7021 58.2017C69.432 54.9316 64.8873 53.6957 60.6524 54.4914L69.5209 45.6229C73.2622 46.6917 76.6703 48.6915 79.4413 51.4624C83.7817 55.8028 86.1722 61.5841 86.1722 67.7414C86.172 73.8986 83.7815 79.6799 79.4408 84.0206Z" fill="url(#paint0_linear_87_653)"/>
<path id="XMLID_286_" d="M64.2203 29.2744C64.883 29.2744 65.533 29.0051 66.0016 28.5362C66.4703 28.0676 66.7399 27.4173 66.7399 26.7549C66.7399 26.0922 66.4703 25.4422 66.0016 24.9738C65.533 24.5052 64.883 24.2354 64.2203 24.2354C63.5577 24.2354 62.9077 24.5049 62.439 24.9738C61.9704 25.4422 61.7008 26.0922 61.7008 26.7549C61.7008 27.4175 61.9704 28.0676 62.439 28.5362C62.9077 29.0051 63.5577 29.2744 64.2203 29.2744Z" fill="url(#paint1_linear_87_653)"/>
</g>
</g>
</g>
<defs>
<linearGradient id="paint0_linear_87_653" x1="1.90302" y1="0" x2="-40.3907" y2="162.111" gradientUnits="userSpaceOnUse">
<stop stop-color="#83AEBB"/>
<stop offset="1" stop-color="#223F67"/>
</linearGradient>
<linearGradient id="paint1_linear_87_653" x1="61.7008" y1="24.2354" x2="60.0915" y2="30.5914" gradientUnits="userSpaceOnUse">
<stop stop-color="#83AEBB"/>
<stop offset="1" stop-color="#223F67"/>
</linearGradient>
<clipPath id="clip0_87_653">
<rect width="129" height="129" fill="white"/>
</clipPath>
</defs>
</svg>
