<svg width="121" height="113" viewBox="0 0 121 113" fill="none" xmlns="http://www.w3.org/2000/svg">
<g id="Group">
<path id="Vector" d="M49.1318 63.8335H70.9999C72.3373 63.8335 73.4218 62.8505 73.4218 61.6384C73.4218 60.4263 72.3373 59.4434 70.9999 59.4434H49.1318C47.7945 59.4434 46.71 60.4263 46.71 61.6384C46.71 62.8505 47.7945 63.8335 49.1318 63.8335Z" fill="url(#paint0_linear_83_638)"/>
<path id="Vector_2" d="M79.8463 69.3994H40.2789C38.9416 69.3994 37.8571 70.3824 37.8571 71.5945C37.8571 72.8066 38.9416 73.7896 40.2789 73.7896H79.8463C81.1837 73.7896 82.2682 72.8066 82.2682 71.5945C82.2682 70.3824 81.1837 69.3994 79.8463 69.3994Z" fill="url(#paint1_linear_83_638)"/>
<path id="Vector_3" d="M91.8789 95.7329H91.8651C90.5277 95.7329 89.45 96.7159 89.45 97.928C89.45 99.1401 90.5413 100.123 91.8787 100.123C93.216 100.123 94.3005 99.1401 94.3005 97.928C94.3005 96.7159 93.2165 95.7329 91.8789 95.7329Z" fill="url(#paint2_linear_83_638)"/>
<path id="Vector_4" d="M99.0699 47.2595H94.3628V40.7233H95.6427C100.842 40.7233 105.056 36.9033 105.056 32.1909V18.3114C105.056 14.3638 102.085 11.0348 98.0646 10.0632V2.19519C98.0646 0.982785 96.9803 0 95.6427 0H79.4683C78.1307 0 77.0464 0.982785 77.0464 2.19519V9.77538H68.6965V2.19519C68.6965 0.982785 67.6122 0 66.2746 0H50.1071C48.7695 0 47.6853 0.982785 47.6853 2.19519V10.0627C43.6608 11.0339 40.6868 14.3631 40.6868 18.3114V27.7895H33.4839V25.4049C33.4839 23.3265 31.6251 21.6415 29.3318 21.6415H19.2212C16.9277 21.6415 15.0687 23.3267 15.0687 25.4053V34.5634C15.0687 36.6423 16.9279 38.3273 19.2212 38.3273H21.8543V47.2591H21.0621C20.1534 47.2591 19.2578 47.3115 18.3791 47.4132C18.3525 47.4156 18.3266 47.42 18.3002 47.4233C7.98686 48.6526 0 56.6652 0 66.3361V80.0628C0 90.5853 9.44846 99.1458 21.0621 99.1458H21.916V107.709C21.916 110.292 24.2321 112.394 27.0783 112.394H37.3257C40.1804 112.394 42.4947 110.296 42.4947 107.708V99.1458H75.9672C76.6528 106.554 83.522 112.394 91.8721 112.394C100.672 112.394 107.831 105.904 107.831 97.9277C107.831 97.7523 107.824 97.5785 107.817 97.4046C115.249 94.3136 120.125 87.5484 120.125 80.0631V66.3363C120.125 55.8172 110.68 47.2595 99.0699 47.2595ZM100.213 18.3079V32.1874C100.213 34.4769 98.1649 36.333 95.6389 36.333H88.5108V14.1658H95.6425C98.1666 14.1658 100.213 16.0203 100.213 18.3079ZM62.0758 36.333V31.8688H83.6673V36.333H62.0758ZM77.8158 40.7233V47.2595H67.9343V40.7233H77.8158ZM63.0906 40.7233V47.2595H56.2241V40.7233H63.0906ZM62.0758 27.4785V23.0203H83.6673V27.4785H62.0758ZM82.6596 40.7233H89.519V47.2595H82.6596V40.7233ZM81.8901 4.39037H93.2209V9.77538H81.8901V4.39037ZM83.6673 14.1658V18.6299H62.0758V14.1658H83.6673ZM52.5293 4.39037H63.853V9.77538H52.5293V4.39037ZM45.5305 18.3114C45.5305 16.0218 47.5782 14.1658 50.1042 14.1658H57.2321V36.3328H50.1074C47.5797 36.3328 45.5308 34.4754 45.5308 32.1845V18.3114H45.5305ZM33.4839 34.5637V32.1799H40.6868V32.1874C40.6868 36.9017 44.903 40.7233 50.1042 40.7233H51.3806V47.2595H26.698V38.3277H29.3311C31.6246 38.3277 33.4839 36.6425 33.4839 34.5637ZM19.9124 33.9374V26.0321H28.6401V33.9374H19.9124ZM37.651 107.708C37.651 107.871 37.5047 108.003 37.3257 108.003H27.0783C26.9116 108.003 26.7598 107.863 26.7598 107.709V99.1458H37.651V107.708ZM76.2983 94.7554H40.0728H24.3379H21.0621C21.0531 94.7473 21.048 94.7425 21.0388 94.7344V81.8302C21.0388 80.73 20.1779 79.7465 18.9764 79.5898C17.4792 79.3946 16.1951 80.4422 16.1951 81.7615V94.0785C9.62308 92.2016 4.84375 86.6287 4.84375 80.0631V66.3363C4.84375 59.7734 9.62308 54.2029 16.1951 52.3267V61.9807C16.1951 63.0809 17.0561 64.0643 18.2575 64.2211C19.7548 64.4162 21.0388 63.3687 21.0388 62.0494V51.6508L21.0393 51.6503H99.0697L99.0859 51.665V85.0365C96.9176 84.0364 94.4672 83.4685 91.8719 83.4685C84.272 83.468 77.8996 88.304 76.2983 94.7554ZM102.954 98.7175C102.537 103.642 98.1445 107.613 92.7099 107.975C86.2003 108.41 80.7499 103.734 80.7499 97.9277C80.7499 97.6792 80.7635 97.4336 80.7831 97.1895C80.7853 97.171 80.786 97.1522 80.7879 97.1335C81.2372 91.9518 86.0349 87.8586 91.8721 87.8586C98.2894 87.8584 103.454 92.8105 102.954 98.7175ZM115.281 80.0631C115.281 85.4639 111.98 90.3793 106.85 92.9354C106.178 91.2849 105.179 89.7774 103.93 88.4715V52.3249C110.502 54.2 115.281 59.7716 115.281 66.3361V80.0631Z" fill="url(#paint3_linear_83_638)"/>
<path id="Vector_5" d="M18.2575 69.734C17.056 69.8907 16.1951 70.874 16.1951 71.9745V71.9813C16.1951 72.7773 16.677 73.5274 17.4716 73.8663C19.2747 74.6353 21.0388 73.4521 21.0388 71.906C21.0388 70.5864 19.7545 69.5386 18.2575 69.734Z" fill="url(#paint4_linear_83_638)"/>
</g>
<defs>
<linearGradient id="paint0_linear_83_638" x1="46.71" y1="59.4434" x2="46.4652" y2="65.3257" gradientUnits="userSpaceOnUse">
<stop stop-color="#83AEBB"/>
<stop offset="1" stop-color="#223F67"/>
</linearGradient>
<linearGradient id="paint1_linear_83_638" x1="37.8571" y1="69.3994" x2="37.7097" y2="75.2882" gradientUnits="userSpaceOnUse">
<stop stop-color="#83AEBB"/>
<stop offset="1" stop-color="#223F67"/>
</linearGradient>
<linearGradient id="paint2_linear_83_638" x1="89.45" y1="95.7329" x2="88.167" y2="101.331" gradientUnits="userSpaceOnUse">
<stop stop-color="#83AEBB"/>
<stop offset="1" stop-color="#223F67"/>
</linearGradient>
<linearGradient id="paint3_linear_83_638" x1="0" y1="0" x2="-33.8386" y2="142.839" gradientUnits="userSpaceOnUse">
<stop stop-color="#83AEBB"/>
<stop offset="1" stop-color="#223F67"/>
</linearGradient>
<linearGradient id="paint4_linear_83_638" x1="16.1951" y1="69.7104" x2="14.9067" y2="75.316" gradientUnits="userSpaceOnUse">
<stop stop-color="#83AEBB"/>
<stop offset="1" stop-color="#223F67"/>
</linearGradient>
</defs>
</svg>
