<svg width="24" height="18" viewBox="0 0 24 18" fill="none" xmlns="http://www.w3.org/2000/svg">
<g clip-path="url(#clip0_55_286)">
<path d="M5.63661 14.4089C4.89479 13.8616 4.19402 13.3726 3.52378 12.8432C2.30743 11.8822 1.21573 10.7845 0.236147 9.57162C-0.0626827 9.20145 -0.0832053 8.81541 0.210119 8.45753C2.30543 5.90577 4.74963 3.81276 7.78699 2.52409C10.7357 1.27279 13.6715 1.35061 16.5732 2.70072C16.819 2.8149 16.9566 2.78623 17.1418 2.59065C17.8891 1.80167 18.655 1.03062 19.4158 0.255464C19.6476 0.0189255 19.9244 -0.0594088 20.2402 0.042989C20.5366 0.139243 20.7163 0.35223 20.7768 0.658912C20.8404 0.978905 20.7188 1.23644 20.4965 1.46273C19.4283 2.5502 18.3642 3.64176 17.2985 4.7323C13.0888 9.03915 8.88069 13.347 4.66404 17.6462C4.50436 17.809 4.2701 17.9385 4.05086 17.9856C3.7225 18.0558 3.41966 17.8469 3.27751 17.5479C3.12634 17.2299 3.1789 16.8726 3.43618 16.6058C4.0919 15.9274 4.75314 15.2547 5.41437 14.5819C5.47844 14.5174 5.55902 14.4688 5.63661 14.4089ZM15.6276 4.05852C14.5429 3.59875 13.4187 3.31204 12.2414 3.27722C10.6516 3.22961 9.1615 3.64483 7.73893 4.34011C5.48044 5.44345 3.60337 7.05621 1.92051 8.92548C1.89998 8.94852 1.89047 8.98232 1.87245 9.01816C3.31955 10.6447 4.92633 12.0583 6.75134 13.1264C7.39505 12.4787 8.01624 11.8541 8.63843 11.2279C7.55573 9.41495 7.96368 7.47195 9.02836 6.2611C9.58497 5.62828 10.2717 5.21203 11.0791 5.01747C12.1954 4.74868 13.2385 4.96269 14.173 5.55455C14.6661 5.04717 15.1401 4.56027 15.6276 4.05852ZM9.84376 10.0191C10.9124 8.95364 11.9661 7.90253 13.0368 6.83452C12.1583 6.36452 10.975 6.57546 10.2938 7.2733C9.58998 7.99469 9.39676 9.13847 9.84376 10.0191Z" fill="#EBEBEB"/>
<path d="M22.132 8.98745C21.2835 8.02594 20.3875 7.15044 19.404 6.37119C19.1347 6.15769 18.964 5.90118 19.0105 5.5433C19.0956 4.89308 19.8249 4.58844 20.3205 5.0308C21.2295 5.84128 22.1119 6.68401 22.9894 7.52982C23.2787 7.80885 23.526 8.1355 23.7818 8.44986C24.0601 8.79238 24.0766 9.18866 23.8003 9.52453C21.6695 12.1157 19.1872 14.2415 16.0863 15.522C14.2112 16.2961 12.2691 16.5649 10.2609 16.205C9.89295 16.1389 9.61715 15.9653 9.52104 15.5803C9.43695 15.2429 9.52755 14.9286 9.81386 14.7494C9.99757 14.6342 10.2614 14.5507 10.4656 14.5881C12.8027 15.0125 14.9405 14.4181 16.9733 13.2856C18.9174 12.2022 20.5717 10.7466 22.0639 9.08678C22.0859 9.06271 22.1014 9.03302 22.132 8.98745Z" fill="#EBEBEB"/>
</g>
<defs>
<clipPath id="clip0_55_286">
<rect width="24" height="18" fill="white"/>
</clipPath>
</defs>
</svg>
